<svg xmlns="http://www.w3.org/2000/svg" id="Lager_1" width="156.1mm" height="84.19mm" viewBox="0 0 442.48 238.65"><defs><style>.cls-1{fill:#252e61;}.cls-2{fill:#d9291c;}</style></defs><g><path class="cls-2" d="M358.99,126.41c8.78-8.41,29.35-28.12,29.35-48.68s-16.53-37.57-36.82-37.57-36.84,16.85-36.84,37.57h8.17c0-16.22,12.86-29.4,28.65-29.4s28.94,13.18,28.94,29.4c0,17.07-18.69,34.5-26.64,42.77l-6.65,6.79h10.93l.9-.89"></path><path class="cls-2" d="M332.29,133.49l23.72-23.71c6.92-6.84,18.52-18.28,18.52-31.89,0-12.76-10.39-23.14-23.14-23.14s-23.08,10.32-23.14,23.02h8.12c.07-8.22,6.79-14.91,15.03-14.91s15.03,6.74,15.03,15.03c0,10.22-9.69,19.78-16.12,26.11l-37.04,37.03h77.23v-7.54h-58.19"></path><g><path class="cls-1" d="M95.54,108.33s-.38-.26-.73-.51c.34-.29,.68-.6,.68-.6,3.33-2.93,3.6-7.78,3.6-12.89,0-13.06-3.8-16.63-17.7-16.63h-29.56v63.33h27.49c14.7,0,21.25-2.66,21.25-18.45,0-6.46-.85-11.36-5.03-14.24Zm-33.75-20.82h16.95c4.45,0,7.25,.05,8.58,1.01,1.25,.9,1.47,2.83,1.47,6.57,0,7.45-.87,8.48-7.15,8.48h-19.84v-16.05h-.02Zm20.09,43.78h-20.07v-18.18h15.98c5.58,0,8.9,.22,10.56,1.38,1.57,1.11,1.86,3.29,1.86,7.18-.02,8.25-.26,9.62-8.32,9.62Z"></path><path class="cls-1" d="M143.86,77.7h-13.27l-23.43,63.33h10.52s5.3-14.51,5.61-15.32h27.87c.29,.8,5.68,15.32,5.68,15.32h10.52l-23.5-63.33Zm-6.63,10.18c1.06,2.88,9.93,26.86,10.51,28.41h-20.94l10.44-28.41Z"></path><path class="cls-1" d="M227.29,77.7h-9.4v48.97c-2.22-3.67-29.74-48.97-29.74-48.97h-12.96v63.33h10.11v-49.05c2.22,3.67,29.71,49.05,29.71,49.05h12.93v-63.33h-.65Z"></path><path class="cls-1" d="M296.49,77.7h-12.01s-25.43,25.45-25.8,25.82h-3.02v-25.8h-10.05v63.33h10.05v-27.92h1.19c.38,.38,27.9,27.92,27.9,27.92h13.56l-31.79-31.79c.89-.89,31.52-31.53,31.52-31.53h-1.55v-.02Z"></path></g><path class="cls-2" d="M359.13,126.41c8.78-8.43,29.35-28.14,29.35-48.69,0-20.74-16.53-37.61-36.84-37.61s-36.86,16.87-36.86,37.59h8.17c0-16.22,12.86-29.42,28.67-29.42s28.94,13.2,28.94,29.42c0,17.07-18.71,34.52-26.64,42.79l-6.65,6.79h10.93l.92-.87Z"></path><rect class="cls-2" x="312.06" y="147.18" width="78.57" height="7.52"></rect><path class="cls-2" d="M332.39,133.47l23.72-23.72c6.94-6.84,18.54-18.3,18.54-31.91,0-12.76-10.39-23.14-23.14-23.14s-23.08,10.32-23.16,23.02h8.12c.07-8.24,6.79-14.91,15.04-14.91s15.04,6.75,15.04,15.04c0,10.22-9.7,19.8-16.12,26.13l-37.04,37.04h77.26v-7.54h-58.26v-.02Z"></path></g><g><path class="cls-1" d="M52.23,173.03h12.26v2.07h-9.91v6.36h9.13v2.07h-9.13v7.03h10v2.07h-12.35v-19.6Z"></path><path class="cls-1" d="M79.79,192.63h-2.18v-9.04c0-2.18-1.37-3.28-3.33-3.28-2.13,0-4.03,1.76-4.03,4.62v7.7h-2.18v-13.89h2.18v2.44c.98-1.74,2.66-2.83,4.68-2.83,2.46,0,4.87,1.43,4.87,4.84v9.44Z"></path><path class="cls-1" d="M104.51,192.63h-2.18v-2.49c-1.04,1.82-2.66,2.88-4.79,2.88-3.89,0-6.72-3.05-6.72-7.34s3.11-7.34,6.58-7.34c2.3,0,4.09,1.09,4.93,2.91v-8.23h2.18v19.6Zm-2.02-6.94c0-3.22-2.07-5.32-4.7-5.32s-4.73,2.1-4.73,5.32,2.1,5.32,4.73,5.32,4.7-2.1,4.7-5.32Z"></path><path class="cls-1" d="M110,186.05c.14,2.91,1.9,5.12,4.79,5.12,2.52,0,3.78-1.37,4.68-3.16l1.6,.95c-1.29,2.55-3.22,4.06-6.36,4.06-3.78,0-6.89-3.05-6.89-7.34s3.11-7.34,6.97-7.34c4.17,0,6.69,2.88,6.69,6.94v.76h-11.48Zm.17-1.79h9.13c-.14-2.63-2.38-4.06-4.51-4.06-2.49,0-4.12,1.68-4.62,4.06Z"></path><path class="cls-1" d="M124.84,173.03h2.18v19.6h-2.18v-19.6Z"></path><path class="cls-1" d="M148.58,192.63c-.42-.5-.84-1.18-.84-2.74-.87,2.02-2.63,3.14-4.73,3.14-2.83,0-4.68-1.79-4.68-4.23,0-2.66,2.13-4.12,4.79-4.54l4.62-.76v-.62c0-1.88-1.23-2.69-3.28-2.69-2.18,0-3.28,1.01-3.28,2.16,0,.14,0,.2,.06,.42l-1.9,.64c-.17-.39-.22-.76-.22-1.12,0-2.1,2.04-3.95,5.35-3.95,3.64,0,5.46,1.71,5.46,4.54v6.27c0,1.6,.17,2.35,.84,3.47h-2.18Zm-.84-6.97v-.42l-4.23,.73c-1.93,.34-2.94,1.32-2.94,2.72s1.04,2.38,2.69,2.38c2.94,0,4.48-2.6,4.48-5.4Z"></path><path class="cls-1" d="M159.39,192.63h-2.18l-5.6-13.89h2.35l4.34,11.37,4.34-11.37h2.35l-5.6,13.89Z"></path><path class="cls-1" d="M175.4,173.03h12.26v2.07h-9.91v6.36h9.13v2.07h-9.13v7.03h10v2.07h-12.35v-19.6Z"></path><path class="cls-1" d="M202.95,192.63h-2.18v-9.04c0-2.18-1.37-3.28-3.33-3.28-2.13,0-4.03,1.76-4.03,4.62v7.7h-2.18v-13.89h2.18v2.44c.98-1.74,2.66-2.83,4.68-2.83,2.46,0,4.87,1.43,4.87,4.84v9.44Z"></path><path class="cls-1" d="M206.99,173.59h2.63v2.74h-2.63v-2.74Zm.22,5.15h2.18v13.89h-2.18v-13.89Z"></path><path class="cls-1" d="M212.33,178.75h2.32v-3.75h2.18v3.75h3.19v1.74h-3.19v8.4c0,1.48,.28,2.24,1.9,2.24,.31,0,.76-.08,1.04-.17l.2,1.82c-.48,.17-1.01,.25-1.85,.25-1.79,0-3.47-.9-3.47-3.72v-8.82h-2.32v-1.74Z"></path><path class="cls-1" d="M223.59,196.3c.28,.14,.7,.28,1.12,.28,.9,0,1.29-.39,1.68-1.37l1.04-2.63-5.6-13.83h2.41l4.4,10.89,4.34-10.89h2.35l-6.97,17.16c-.81,2.02-1.93,2.63-3.64,2.63-.7,0-1.12-.14-1.46-.28l.34-1.96Z"></path><path class="cls-1" d="M245.68,173.03h7.17c3.75,0,6.16,1.99,6.16,4.73,0,2.32-1.54,3.64-3.42,4.31,2.32,.78,4.12,2.13,4.12,4.93,0,3.44-3.16,5.63-6.8,5.63h-7.22v-19.6Zm2.35,8.23h4.65c2.3,0,4.09-.9,4.09-3.14s-1.79-3.14-4.09-3.14h-4.65v6.27Zm0,9.41h4.51c2.72,0,4.93-.98,4.93-3.72s-2.21-3.72-4.93-3.72h-4.51v7.45Z"></path><path class="cls-1" d="M272.31,192.63c-.42-.5-.84-1.18-.84-2.74-.87,2.02-2.63,3.14-4.73,3.14-2.83,0-4.68-1.79-4.68-4.23,0-2.66,2.13-4.12,4.79-4.54l4.62-.76v-.62c0-1.88-1.23-2.69-3.28-2.69-2.18,0-3.28,1.01-3.28,2.16,0,.14,0,.2,.06,.42l-1.9,.64c-.17-.39-.22-.76-.22-1.12,0-2.1,2.04-3.95,5.35-3.95,3.64,0,5.46,1.71,5.46,4.54v6.27c0,1.6,.17,2.35,.84,3.47h-2.18Zm-.84-6.97v-.42l-4.23,.73c-1.93,.34-2.94,1.32-2.94,2.72s1.04,2.38,2.69,2.38c2.94,0,4.48-2.6,4.48-5.4Z"></path><path class="cls-1" d="M289.25,192.63h-2.18v-9.04c0-2.18-1.37-3.28-3.33-3.28-2.13,0-4.03,1.76-4.03,4.62v7.7h-2.18v-13.89h2.18v2.44c.98-1.74,2.66-2.83,4.68-2.83,2.46,0,4.87,1.43,4.87,4.84v9.44Z"></path><path class="cls-1" d="M295.35,183.95l5.29-5.21h2.6l-4.79,4.73,5.74,9.16h-2.49l-4.76-7.62-1.6,1.6v6.02h-2.18v-19.6h2.18v10.92Z"></path><path class="cls-1" d="M329.79,189.25c-1.09,2.21-3.19,3.78-6.27,3.78-5.52,0-9.32-4.34-9.32-10.19s4.37-10.19,9.58-10.19c3.84,0,6.69,1.88,8.18,4.76l-1.79,1.29c-1.68-2.91-3.72-3.98-6.41-3.98-3.84,0-7.14,3.33-7.14,8.12s2.74,8.12,7,8.12c3.67,0,5.6-2.52,6.13-6.19h-6.89v-1.96h9.24v9.83h-1.62l-.67-3.39Z"></path><path class="cls-1" d="M343.01,180.54c-.34-.11-.67-.17-1.09-.17-1.9,0-3.53,1.82-3.53,4.68v7.59h-2.18v-13.89h2.18v2.52c.76-1.65,2.07-2.91,4.03-2.91,.22,0,.64,.06,.95,.14l-.36,2.04Z"></path><path class="cls-1" d="M351.6,193.03c-3.47,0-7.25-2.6-7.25-7.34s3.78-7.34,7.25-7.34,7.25,2.6,7.25,7.34-3.78,7.34-7.25,7.34Zm5.01-7.34c0-3.11-2.18-5.38-5.01-5.38s-5.01,2.27-5.01,5.38,2.18,5.38,5.01,5.38,5.01-2.27,5.01-5.38Z"></path><path class="cls-1" d="M361.94,178.75h2.18v9.04c0,2.18,1.37,3.28,3.28,3.28,2.18,0,4.09-1.76,4.09-4.54v-7.78h2.18v13.89h-2.18v-2.44c-.92,1.76-2.58,2.83-4.62,2.83-2.52,0-4.93-1.43-4.93-5.12v-9.16Z"></path><path class="cls-1" d="M377.81,178.75h2.18v2.49c.84-1.62,2.72-2.88,4.98-2.88,3.64,0,6.55,2.83,6.55,7.34s-3.02,7.34-6.69,7.34c-2.1,0-3.84-.95-4.84-2.6v7.92h-2.18v-19.6Zm2.02,6.94c0,3.22,2.04,5.32,4.73,5.32s4.73-2.1,4.73-5.32-2.04-5.32-4.73-5.32-4.73,2.1-4.73,5.32Z"></path></g></svg>