<svg xmlns="http://www.w3.org/2000/svg" id="Lager_1" width="249.23mm" height="71.25mm" viewBox="0 0 706.48 201.98"><defs><style>.cls-1{fill:#1b4949;}</style></defs><g id="Layer_1"><g><g><path class="cls-1" d="M42.52,107.33V40.69h28.56c6.84,0,12.29,1.47,16.18,4.33,3.89,2.86,5.88,6.92,5.88,12.03,0,3.29-.78,5.97-2.25,8.13s-3.63,4.07-6.4,5.8c7.62,3.2,11.42,8.65,11.42,16.36,0,6.06-2.34,10.9-6.92,14.54-4.59,3.63-10.3,5.45-17.05,5.45h-29.42Zm15.32-54.69v13.24h12.89c2.51,0,4.5-.61,5.97-1.82,1.47-1.21,2.16-2.86,2.16-4.85s-.69-3.63-2.16-4.76c-1.38-1.13-3.46-1.73-6.06-1.73h-12.81v-.09Zm0,25.79v16.18h13.67c6.4,0,9.69-2.68,9.69-7.96,0-2.51-.78-4.5-2.34-5.97-1.56-1.47-3.98-2.16-7.27-2.16h-13.76v-.09Z"></path><path class="cls-1" d="M102.23,107.33V40.69h14.28V107.33h-14.28Z"></path><path class="cls-1" d="M124.56,88.63v-28.56h14.28v25.44c0,3.03,.69,5.37,2.16,7.1,1.47,1.64,3.55,2.51,6.14,2.51,3.12,0,5.45-1.13,7.1-3.46,1.64-2.25,2.42-5.28,2.42-8.83v-22.76h14.37v47.25h-14.28v-6.84c-1.56,2.6-3.46,4.59-5.63,6.06-2.16,1.38-5.19,2.16-9,2.16-5.02,0-9.17-1.82-12.55-5.37-3.38-3.63-5.02-8.48-5.02-14.71Z"></path><path class="cls-1" d="M225.03,78.6h-34.96c.35,2.86,1.64,5.11,3.81,6.75s4.67,2.42,7.62,2.42c5.11,0,9.09-2.51,12.03-7.44l10.3,5.88c-4.5,9.17-12.12,13.76-22.85,13.76-6.66,0-12.38-2.34-17.13-7.01s-7.18-10.64-7.18-17.91,2.34-13.41,7.1-18,10.73-6.92,18.09-6.92c6.92,0,12.55,2.25,16.79,6.75,4.24,4.5,6.4,10.13,6.4,16.79v4.93Zm-23.45-17.39c-2.6,0-4.85,.69-6.75,1.99s-3.29,3.12-4.07,5.37h21.55c-.52-2.25-1.82-4.07-3.72-5.37-1.99-1.38-4.33-1.99-7.01-1.99Z"></path><path class="cls-1" d="M243.38,72.11c0,1.21,.87,2.25,2.51,3.03s4.15,1.56,7.53,2.25c5.71,1.21,9.78,3.03,12.29,5.45,2.51,2.42,3.81,5.63,3.81,9.69,0,4.67-1.82,8.48-5.37,11.51-3.55,3.03-8.22,4.59-13.93,4.59-10.82,0-18.43-4.93-22.67-14.71l10.99-6.75c2.6,6.58,6.58,9.87,11.94,9.87,1.82,0,3.2-.35,4.33-.95,1.13-.69,1.64-1.56,1.64-2.77,0-1.38-.69-2.42-2.08-3.29-1.38-.78-3.72-1.56-6.92-2.16-4.93-.95-8.91-2.68-11.94-5.19-3.03-2.51-4.59-5.88-4.59-9.95s1.73-7.7,5.19-10.21,7.7-3.81,12.72-3.81,9.35,.95,12.38,2.86c3.03,1.9,5.63,5.02,7.79,9.17l-10.21,5.97c-.87-2.6-2.16-4.59-3.89-5.97s-3.72-2.08-5.88-2.08c-3.81,.17-5.63,1.3-5.63,3.46Z"></path><path class="cls-1" d="M271.76,71.15v-11.08h6.75v-12.72h14.28v12.72h9.78v11.08h-9.78v18.69c0,1.82,.43,3.38,1.38,4.41,.95,1.13,2.16,1.64,3.81,1.64s3.2-.26,4.5-.78l1.38,11.94c-2.86,1.04-6.06,1.56-9.61,1.56-4.41,0-8.13-1.3-11.16-3.81-3.03-2.51-4.59-6.58-4.59-12.2v-21.46h-6.75Z"></path><path class="cls-1" d="M354.24,78.6h-34.96c.35,2.86,1.64,5.11,3.81,6.75s4.67,2.42,7.62,2.42c5.11,0,9.09-2.51,12.03-7.44l10.3,5.88c-4.5,9.17-12.12,13.76-22.85,13.76-6.66,0-12.38-2.34-17.13-7.01s-7.18-10.64-7.18-17.91,2.34-13.41,7.1-18,10.73-6.92,18.09-6.92c6.92,0,12.55,2.25,16.79,6.75,4.24,4.5,6.4,10.13,6.4,16.79v4.93Zm-23.54-17.39c-2.6,0-4.85,.69-6.75,1.99-1.9,1.3-3.29,3.12-4.07,5.37h21.55c-.52-2.25-1.82-4.07-3.72-5.37-1.9-1.38-4.24-1.99-7.01-1.99Z"></path><path class="cls-1" d="M359.95,126.71V60.08h14.28v5.37c3.72-4.5,8.91-6.66,15.58-6.66,5.8,0,10.82,2.16,15.14,6.58,4.33,4.41,6.49,10.47,6.49,18.35s-2.25,13.85-6.66,18.26c-4.41,4.41-9.52,6.66-15.32,6.66-6.4,0-11.51-2.08-15.32-6.23v24.32h-14.19Zm33.75-51.58c-2.34-2.16-5.11-3.29-8.39-3.29s-6.06,1.13-8.39,3.29-3.46,5.02-3.46,8.57,1.13,6.4,3.46,8.57c2.25,2.16,5.11,3.29,8.39,3.29s6.06-1.13,8.39-3.29c2.25-2.16,3.46-5.02,3.46-8.57s-1.13-6.4-3.46-8.57Z"></path></g><g><path class="cls-1" d="M649.25,107.24v-14.71h14.71v14.71h-14.71Z"></path><path class="cls-1" d="M433.51,40.6h28.56c13.67,0,22.15,6.06,22.15,16.36,0,7.01-3.72,10.82-8.65,13.93,5.71,2.42,11.42,7.36,11.42,16.36,0,12.55-10.99,19.99-23.97,19.99h-29.51V40.6Zm15.4,25.18h12.89c5.19,0,8.22-2.68,8.22-6.66s-2.94-6.49-8.22-6.49h-12.89v13.15Zm0,28.73h13.59c6.66,0,9.69-3.12,9.69-7.96s-2.94-8.22-9.69-8.22h-13.59v16.18Z"></path><path class="cls-1" d="M524.55,107.24c-1.13-1.13-2.08-3.46-2.25-6.06-2.94,4.15-7.79,7.44-14.45,7.44-10.56,0-16.62-6.4-16.62-15.14,0-9.52,8.22-14.02,18.43-15.58l12.03-1.9v-.87c0-4.33-2.08-6.84-7.36-6.84-4.33,0-7.27,1.64-7.27,4.24,0,.26,0,.52,.09,.87l-12.98,4.41c-.43-1.64-.78-3.12-.78-4.59,0-8.65,9.17-14.45,20.86-14.45,15.06,0,21.63,6.4,21.63,17.91v18.95c0,5.45,.87,8.39,3.12,11.68h-14.45v-.09Zm-2.94-21.2v-.87l-10.13,1.73c-3.55,.61-6.49,2.42-6.49,5.71,0,2.6,2.08,4.93,5.71,4.93,6.84,0,10.9-5.71,10.9-11.51Z"></path><path class="cls-1" d="M590.92,107.24h-14.28v-25.7c0-5.45-2.51-9.35-8.39-9.35s-9.52,4.85-9.52,12.29v22.76h-14.28V60.08h14.28v6.75c3.46-4.85,8.48-8.05,15.32-8.05,10.73,0,16.88,6.75,16.88,16.36v32.11Z"></path><path class="cls-1" d="M611.52,72.54l12.55-12.46h17.57l-17.05,16.7,19.64,30.55h-16.88l-13.07-20.42-2.86,2.86v17.57h-14.28V40.69h14.37v31.85Z"></path></g></g></g><g><path class="cls-1" d="M184.23,139.32h12.26v2.07h-9.91v6.36h9.13v2.07h-9.13v7.03h10v2.07h-12.35v-19.6Z"></path><path class="cls-1" d="M211.79,158.92h-2.18v-9.04c0-2.18-1.37-3.28-3.33-3.28-2.13,0-4.03,1.76-4.03,4.62v7.7h-2.18v-13.89h2.18v2.44c.98-1.74,2.66-2.83,4.68-2.83,2.46,0,4.87,1.43,4.87,4.84v9.44Z"></path><path class="cls-1" d="M236.51,158.92h-2.18v-2.49c-1.04,1.82-2.66,2.88-4.79,2.88-3.89,0-6.72-3.05-6.72-7.34s3.11-7.33,6.58-7.33c2.3,0,4.09,1.09,4.93,2.91v-8.23h2.18v19.6Zm-2.02-6.94c0-3.22-2.07-5.32-4.7-5.32s-4.73,2.1-4.73,5.32,2.1,5.32,4.73,5.32,4.7-2.1,4.7-5.32Z"></path><path class="cls-1" d="M242,152.34c.14,2.91,1.9,5.12,4.79,5.12,2.52,0,3.78-1.37,4.68-3.16l1.6,.95c-1.29,2.55-3.22,4.06-6.36,4.06-3.78,0-6.89-3.05-6.89-7.34s3.11-7.33,6.97-7.33c4.17,0,6.69,2.88,6.69,6.94v.76h-11.48Zm.17-1.79h9.13c-.14-2.63-2.38-4.06-4.51-4.06-2.49,0-4.12,1.68-4.62,4.06Z"></path><path class="cls-1" d="M256.84,139.32h2.18v19.6h-2.18v-19.6Z"></path><path class="cls-1" d="M280.58,158.92c-.42-.5-.84-1.18-.84-2.74-.87,2.02-2.63,3.14-4.73,3.14-2.83,0-4.68-1.79-4.68-4.23,0-2.66,2.13-4.12,4.79-4.54l4.62-.76v-.62c0-1.88-1.23-2.69-3.28-2.69-2.18,0-3.28,1.01-3.28,2.16,0,.14,0,.2,.06,.42l-1.9,.64c-.17-.39-.22-.76-.22-1.12,0-2.1,2.04-3.95,5.35-3.95,3.64,0,5.46,1.71,5.46,4.54v6.27c0,1.6,.17,2.35,.84,3.47h-2.18Zm-.84-6.97v-.42l-4.23,.73c-1.93,.34-2.94,1.32-2.94,2.72s1.04,2.38,2.69,2.38c2.94,0,4.48-2.6,4.48-5.4Z"></path><path class="cls-1" d="M291.39,158.92h-2.18l-5.6-13.89h2.35l4.34,11.37,4.34-11.37h2.35l-5.6,13.89Z"></path><path class="cls-1" d="M307.4,139.32h12.26v2.07h-9.91v6.36h9.13v2.07h-9.13v7.03h10v2.07h-12.35v-19.6Z"></path><path class="cls-1" d="M334.96,158.92h-2.18v-9.04c0-2.18-1.37-3.28-3.33-3.28-2.13,0-4.03,1.76-4.03,4.62v7.7h-2.18v-13.89h2.18v2.44c.98-1.74,2.66-2.83,4.68-2.83,2.46,0,4.87,1.43,4.87,4.84v9.44Z"></path><path class="cls-1" d="M338.99,139.88h2.63v2.74h-2.63v-2.74Zm.22,5.15h2.18v13.89h-2.18v-13.89Z"></path><path class="cls-1" d="M344.34,145.03h2.32v-3.75h2.18v3.75h3.19v1.74h-3.19v8.4c0,1.48,.28,2.24,1.9,2.24,.31,0,.76-.08,1.04-.17l.2,1.82c-.48,.17-1.01,.25-1.85,.25-1.79,0-3.47-.9-3.47-3.72v-8.82h-2.32v-1.74Z"></path><path class="cls-1" d="M355.59,162.58c.28,.14,.7,.28,1.12,.28,.9,0,1.29-.39,1.68-1.37l1.04-2.63-5.6-13.83h2.41l4.4,10.89,4.34-10.89h2.35l-6.97,17.16c-.81,2.02-1.93,2.63-3.64,2.63-.7,0-1.12-.14-1.46-.28l.34-1.96Z"></path><path class="cls-1" d="M377.68,139.32h7.17c3.75,0,6.16,1.99,6.16,4.73,0,2.32-1.54,3.64-3.42,4.31,2.32,.78,4.12,2.13,4.12,4.93,0,3.44-3.16,5.63-6.8,5.63h-7.22v-19.6Zm2.35,8.23h4.65c2.3,0,4.09-.9,4.09-3.14s-1.79-3.14-4.09-3.14h-4.65v6.27Zm0,9.41h4.51c2.72,0,4.93-.98,4.93-3.72s-2.21-3.72-4.93-3.72h-4.51v7.45Z"></path><path class="cls-1" d="M404.31,158.92c-.42-.5-.84-1.18-.84-2.74-.87,2.02-2.63,3.14-4.73,3.14-2.83,0-4.68-1.79-4.68-4.23,0-2.66,2.13-4.12,4.79-4.54l4.62-.76v-.62c0-1.88-1.23-2.69-3.28-2.69-2.18,0-3.28,1.01-3.28,2.16,0,.14,0,.2,.06,.42l-1.9,.64c-.17-.39-.22-.76-.22-1.12,0-2.1,2.04-3.95,5.35-3.95,3.64,0,5.46,1.71,5.46,4.54v6.27c0,1.6,.17,2.35,.84,3.47h-2.18Zm-.84-6.97v-.42l-4.23,.73c-1.93,.34-2.94,1.32-2.94,2.72s1.04,2.38,2.69,2.38c2.94,0,4.48-2.6,4.48-5.4Z"></path><path class="cls-1" d="M421.25,158.92h-2.18v-9.04c0-2.18-1.37-3.28-3.33-3.28-2.13,0-4.03,1.76-4.03,4.62v7.7h-2.18v-13.89h2.18v2.44c.98-1.74,2.66-2.83,4.68-2.83,2.46,0,4.87,1.43,4.87,4.84v9.44Z"></path><path class="cls-1" d="M427.35,150.24l5.29-5.21h2.6l-4.79,4.73,5.74,9.16h-2.49l-4.76-7.62-1.6,1.6v6.02h-2.18v-19.6h2.18v10.92Z"></path><path class="cls-1" d="M461.79,155.53c-1.09,2.21-3.19,3.78-6.27,3.78-5.52,0-9.32-4.34-9.32-10.19s4.37-10.19,9.58-10.19c3.84,0,6.69,1.88,8.18,4.76l-1.79,1.29c-1.68-2.91-3.72-3.98-6.41-3.98-3.84,0-7.14,3.33-7.14,8.12s2.74,8.12,7,8.12c3.67,0,5.6-2.52,6.13-6.19h-6.89v-1.96h9.24v9.83h-1.62l-.67-3.39Z"></path><path class="cls-1" d="M475.01,146.82c-.34-.11-.67-.17-1.09-.17-1.9,0-3.53,1.82-3.53,4.68v7.59h-2.18v-13.89h2.18v2.52c.76-1.65,2.07-2.91,4.03-2.91,.22,0,.64,.06,.95,.14l-.36,2.04Z"></path><path class="cls-1" d="M483.61,159.31c-3.47,0-7.25-2.6-7.25-7.34s3.78-7.33,7.25-7.33,7.25,2.6,7.25,7.33-3.78,7.34-7.25,7.34Zm5.01-7.34c0-3.11-2.18-5.38-5.01-5.38s-5.01,2.27-5.01,5.38,2.18,5.38,5.01,5.38,5.01-2.27,5.01-5.38Z"></path><path class="cls-1" d="M493.94,145.03h2.18v9.04c0,2.18,1.37,3.28,3.28,3.28,2.18,0,4.09-1.76,4.09-4.54v-7.78h2.18v13.89h-2.18v-2.44c-.92,1.76-2.58,2.83-4.62,2.83-2.52,0-4.93-1.43-4.93-5.12v-9.16Z"></path><path class="cls-1" d="M509.81,145.03h2.18v2.49c.84-1.62,2.72-2.88,4.98-2.88,3.64,0,6.55,2.83,6.55,7.33s-3.02,7.34-6.69,7.34c-2.1,0-3.84-.95-4.84-2.6v7.92h-2.18v-19.6Zm2.02,6.94c0,3.22,2.04,5.32,4.73,5.32s4.73-2.1,4.73-5.32-2.04-5.32-4.73-5.32-4.73,2.1-4.73,5.32Z"></path></g></svg>