<svg xmlns="http://www.w3.org/2000/svg" xmlns:xlink="http://www.w3.org/1999/xlink" viewBox="0 0 225 75"><defs><style>      .cls-1 {        fill: none;      }      .cls-2 {        fill: #429fe1;      }      .cls-3 {        fill: #33574e;        fill-opacity: .2;      }      .cls-4 {        clip-path: url(#clippath);      }    </style><clipPath id="clippath"><rect class="cls-1" y="24.8" width="224.8" height="32.8"></rect></clipPath></defs><g><g id="Layer_1"><path class="cls-3" d="M33,14.6c1.5-2.1,2.6-4.3,3.1-6.1.8-2.6.1-3.8-.5-4.2l-2.5-1.8c-2.1-1.5-6.1,1.9-8.9,5.8-1.5,2.1-2.6,4.3-3.1,6.1-.8,2.6-.1,3.8.5,4.2l2.5,1.8c.2.1.3.2.5.3,2.2.7,5.8-2.5,8.4-6.1ZM29.7,16.7l-1.5-1.1c.8-.9,1.6-1.8,2.3-2.8.2-.2.3-.5.5-.7l1.5,1.1c-.2.2-.3.5-.5.7-.7,1-1.5,1.9-2.3,2.8ZM35,8.2h0c-.4,1.2-1,2.6-1.8,4l-1.5-1.1c.8-1.3,1.5-2.7,1.9-4l1.5,1.1ZM35.2,6.9l-1.4-1c0-.4.1-.9.1-1.3l.9.7c.3.2.4.8.4,1.7ZM25.1,9c3-4.1,6-6,7.1-5.6,0,0,.1,0,.2,0,.9.7.3,4.3-2.9,8.7-1.4,2-3,3.6-4.5,4.7-1.3.9-2.3,1.2-2.8.9-.5-.3-.5-1.5,0-2.9.5-1.7,1.5-3.8,3-5.7ZM24.7,19.4l-.9-.7c.7-.2,1.3-.6,1.9-1,.6-.4,1.1-.8,1.6-1.3l1.5,1.1c-1.9,1.7-3.5,2.3-4.1,1.9Z"></path><path class="cls-3" d="M120.9,67c-1.2-1.6-3.1-3.3-5.4-4.8-2.2-1.5-4.6-2.5-6.5-3-2.2-.5-3.7-.3-4.3.7l-1.8,2.7c-1.4,2.2,2.3,6.3,6.5,9,2.9,1.9,6.2,3.3,8.5,3.3s1.9-.3,2.3-1l1.8-2.7c.7-1,.3-2.5-1.1-4.3ZM106.9,60.1c.6,0,1.2,0,1.7.2,1.9.4,4.1,1.5,6.2,2.9,2.1,1.4,4,3,5.1,4.5,1,1.3,1.4,2.5,1,3-.4.6-1.5.7-3.2.3-1.9-.4-4.1-1.5-6.2-2.9-2.1-1.4-4-3-5.1-4.5-1-1.3-1.4-2.4-1-3,.2-.3.7-.5,1.4-.5ZM103.8,63.3l.7-1.1c.2.5.4,1,.7,1.4l-1.1,1.7c-.5-.9-.6-1.6-.4-2h0ZM104.8,66.2l1.1-1.8c.9,1.1,2.1,2.3,3.5,3.3l-1.2,1.8c-1.5-1.2-2.7-2.3-3.5-3.4h0ZM109.1,70.3l1.2-1.8c.3.2.5.4.8.6,1.1.7,2.2,1.4,3.4,1.9l-1.2,1.8c-1.2-.5-2.3-1.2-3.4-1.9-.3-.2-.5-.4-.8-.6h0ZM119.3,73.4c-.5.8-2.4.7-4.9-.3l1.2-1.8c.7.3,1.4.5,2.1.7.6.2,1.3.3,2,.3.1,0,.3,0,.4,0l-.7,1.1Z"></path><path class="cls-3" d="M187.7,8.3l-2.6-2.2c-1.7-1.5-5.8.4-9.2,4.4-1.6,1.8-2.8,3.8-3.3,5.5-.6,1.9-.5,3.3.4,4.1l2.6,2.2c.4.3.9.5,1.5.5,2,0,5-1.8,7.6-4.9,3.4-3.9,4.7-8.2,2.9-9.6ZM187.5,11l-1.7-1.5c.1-.5.2-1,.2-1.5l1.2,1c.4.3.5,1.1.4,2h0ZM186.6,13.7l-1.8-1.6c.3-.5.5-1,.7-1.6l1.8,1.5c-.2.6-.4,1.1-.7,1.6h0ZM185.2,15.9l-1.8-1.6c.3-.5.7-.9.9-1.4l1.8,1.6c-.3.5-.6.9-.9,1.4h0ZM173.5,16.4c.5-1.6,1.7-3.5,3.2-5.2,2.6-3,5.3-4.5,6.9-4.5s.7,0,.9.3c1.1,1,.2,4.6-3,8.3-1.5,1.7-3.2,3.1-4.7,3.9-1.4.7-2.5.8-3.1.4s-.6-1.6-.1-3.1ZM181.5,19.8l-1.8-1.6c.4-.3.8-.7,1.3-1.1l1.8,1.6c-.4.4-.8.8-1.3,1.1ZM179.2,21.3l-1.8-1.5c.5-.3,1-.6,1.5-.9l1.8,1.6c-.5.3-1,.6-1.5.9ZM176.2,21.6l-1.2-1c.5,0,1-.2,1.5-.4l1.7,1.5c-.9.3-1.6.3-2,0ZM183.4,18.1l-1.8-1.6c.2-.2.4-.4.6-.7.2-.2.4-.5.6-.7l1.8,1.6c-.2.2-.4.5-.6.7s-.4.5-.6.7Z"></path><g class="cls-4"><g><path class="cls-2" d="M167.3,50.8h4.5c0,0,0,.1,0,.2.4,2,2.1,2.9,3.9,2.7,2.1-.2,3.3-1.6,3.4-3.7,0-.7,0-1.4,0-2.1-.3.2-.5.4-.7.6-2.3,2-5.7,1.8-8,.3-2.6-1.8-3.6-4.3-3.5-7.3.1-2.3,1-4.1,2.7-5.6,2.4-2.1,6.2-2.5,8.9-.2.2.2.3.3.6.6,0-.6,0-1,0-1.4,0-.1.2-.3.3-.3,1.4,0,2.8,0,4.3,0,0,.1,0,.2,0,.3,0,5.1,0,10.1,0,15.2,0,3.3-1.8,5.6-4.7,6.9-2.9,1.2-5.8,1-8.5-.6-2-1.2-3.1-3-3.2-5.4h0ZM179.3,42c0-2.3-1.7-4.1-3.9-4-2.2,0-3.9,1.8-3.8,4.1,0,2.3,1.7,3.9,4,3.9,2.1,0,3.8-1.8,3.8-4h0Z"></path><path class="cls-2" d="M10.3,40.3c1.2,1.6,2.4,3.1,3.6,4.7,1.2,1.5,2.3,3,3.6,4.6-.2,0-.3,0-.4,0-1.7,0-3.3,0-5,0-.2,0-.5-.1-.6-.3-2-2.7-4-5.4-6.1-8.1-.1-.2-.4-.3-.7-.5v8.8H0v-22.7c0,0,.1,0,.2,0,2.6,0,5.1,0,7.7,0,2,0,3.8.7,5.3,2.1,1.2,1.1,1.9,2.4,2.1,4,.2,1.7,0,3.3-1.1,4.7-.9,1.2-2,1.9-3.3,2.5-.1,0-.3.1-.5.2h0ZM4.8,30.8v6.4c.8,0,1.6,0,2.3,0,.4,0,.8-.1,1.2-.2,1.3-.4,2.1-1.5,2.1-3,0-1.4-.8-2.4-2.1-2.9-1.2-.4-2.3-.3-3.5-.3Z"></path><path class="cls-2" d="M82.3,49.6h-4.6v-1.7c-.5.4-.8.8-1.3,1-2.1,1.4-5.2,1.3-7.4,0-4.2-2.7-4.7-8.8-1.7-12.2,2-2.2,4.5-3,7.4-2.3,1.1.3,2,.9,2.9,1.9,0-.5,0-.9,0-1.4,0-.3.1-.4.4-.4,1.2,0,2.4,0,3.6,0,.4,0,.5.1.5.6,0,3.8,0,7.5,0,11.3v3.3h0ZM73.9,46c2.2,0,3.9-1.7,3.9-3.9,0-2.2-1.7-4.1-3.9-4-2.2,0-3.9,1.8-3.9,4,0,2.2,1.7,4,3.9,4Z"></path><path class="cls-2" d="M43.5,32.1c-.2-.7-.3-1.4-.6-2.1-.4-.9-1.5-1.3-2.6-1.2-1,.2-1.8.9-1.9,1.9-.2,1.2-.2,2.3-.2,3.6h2c.8,0,1.3.4,1.3,1.2,0,.8,0,1.7,0,2.5,0,0,0,0,0,.2h-3.1v11.2h-4.6v-11.2h-2.2c0-1.3,0-2.5,0-3.7,0,0,.2-.2.4-.2.6,0,1.2,0,1.8,0,0-.8,0-1.6,0-2.4,0-.8,0-1.7.3-2.5.7-2.4,2.4-3.9,4.9-4.5,2.2-.5,4.4-.3,6.3,1.1,2.1,1.4,2.9,3.5,2.8,6h-4.4,0Z"></path><path class="cls-2" d="M31.6,43.2h-11.1c0,.9,1.1,2.4,2.4,2.7,1.9.5,3.4.1,4.9-2,1.1.7,2.1,1.5,3.2,2.2-.8,1.3-1.8,2.2-3.1,2.8-3,1.4-6,1.2-8.7-.7-2.7-2-3.8-5.8-2.7-8.9,1.1-3,3.2-4.8,6.4-5.2,3.6-.5,6.7,1.2,8,4.7.5,1.4.7,2.9.6,4.4ZM27.2,40.3c-.4-1.8-1.8-2.8-3.6-2.5-1.5.2-2.8,1.4-2.9,2.5h6.5Z"></path><path class="cls-2" d="M133.3,43.2h-11.1c.4,1.4,1.2,2.5,2.6,2.8,2,.5,3.6-.3,4.7-2.1,1.1.8,2.2,1.5,3.2,2.2-1.2,1.9-2.8,3.1-5,3.5-2.9.6-5.5,0-7.7-2.2-2.2-2.2-2.9-5.9-1.6-8.8,1.9-4.1,6.4-5.8,10.5-4.1,1.6.7,2.8,2,3.5,3.6.7,1.6.9,3.2.8,5h0ZM128.8,40.3c0-1-1.1-2.4-2.7-2.6-2.1-.2-3.6,1.4-3.7,2.6h6.5Z"></path><path class="cls-2" d="M54.6,49.6h-4.6v-.6c0-4.7,0-9.3,0-14,0-.5.1-.6.6-.6,1.3,0,2.6,0,4,0v1.6c.6-.4,1-.8,1.6-1.2,3.1-2,7.2-.4,8.1,3.2.1.5.2,1,.2,1.4,0,3.3,0,6.5,0,9.8,0,0,0,.2,0,.3h-4.6v-.6c0-2.8,0-5.5,0-8.2,0-1.5-.9-2.5-2.2-2.6-1.5-.1-2.7.7-2.9,2.2,0,.3,0,.7,0,1.1,0,2.5,0,5,0,7.5v.6h0Z"></path><path class="cls-2" d="M156.1,49.6h-4.6v-15.1h4.6v1.5c.7-.5,1.4-1,2.1-1.4,3-1.4,7.5,0,7.7,4.6.1,3.5,0,6.9,0,10.4h-4.6v-8.4c0-.8-.1-1.7-.8-2.3-1.5-1.4-3.9-.6-4.4,1.4,0,.4-.1.7-.1,1.1,0,2.6,0,5.1,0,7.7v.5h0Z"></path><path class="cls-2" d="M207.4,49.6h-4.5v-8.5c0-.9-.1-1.7-.8-2.3-1.4-1.4-3.9-.6-4.4,1.3,0,.4-.1.8-.1,1.3,0,2.5,0,5,0,7.6v.6h-4.6v-15.1h4.5v1.7c.2-.2.3-.3.4-.4,2-2,5.1-2.3,7.4-.6,1.3,1,2,2.3,2,3.9,0,3.5,0,7,0,10.4,0,0,0,0,0,.1h0Z"></path><path class="cls-2" d="M88.9,36.1c2.2-2.4,5.1-2.5,7.1-1.5,1.7.9,2.6,2.4,2.7,4.3,0,2.2,0,4.4,0,6.5,0,1.3,0,2.7,0,4h-4.6v-.6c0-2.6,0-5.1,0-7.7,0-.5,0-1.1-.2-1.6-.4-1.1-1.2-1.6-2.4-1.6-1.1,0-2,.6-2.4,1.6-.2.5-.3,1.1-.3,1.6,0,2.5,0,5,0,7.6v.6h-4.6c0-.2,0-.3,0-.5,0-4.7,0-9.4,0-14.1,0-.5.1-.6.6-.6,1.2,0,2.4,0,3.6,0,.3,0,.5.1.4.4,0,.4,0,.8,0,1.3h0Z"></path><path class="cls-2" d="M216.9,49.9c-2.4,0-4.2-.7-5.7-2-2.4-2.1-3.2-4.8-2.5-7.9.9-3.7,4.3-6.1,8.3-6,4.4.1,7.8,3.6,7.8,7.9,0,3.2-1.6,5.6-4.5,7.1-1.2.6-2.5.9-3.5.9h0ZM216.6,46c2.2,0,3.9-1.7,3.9-3.9,0-2.3-1.7-4.1-3.8-4.1-2.2,0-3.9,1.7-3.9,4,0,2.3,1.7,4,3.9,4h0Z"></path><path class="cls-2" d="M111.1,37.9c-1.3.3-2.4.6-3.6.9-.3,0-.3-.1-.4-.3-.3-.8-1-1.2-1.9-1-.5,0-.9.5-1,1,0,.5.1.9.7,1.1.8.3,1.6.5,2.4.7.6.2,1.3.4,1.9.7,1.6.8,2.3,2.2,2.3,3.9,0,2.4-1.9,4.2-4.1,4.7-2.7.7-5.1.1-7.1-2-.5-.5-.8-1.2-1-2,1.3-.4,2.5-.8,3.7-1.1.4.5.7,1,1.1,1.4.7.6,1.5.7,2.4.3.5-.2.7-.7.7-1.2,0-.5-.3-.9-.8-1-.8-.2-1.6-.4-2.4-.7-.9-.3-1.9-.6-2.7-1.2-1.7-1.2-1.6-3.6-1-5,.9-2,2.6-2.9,4.7-3.1,1.7-.1,3.3.2,4.7,1.4.7.6,1.2,1.4,1.5,2.4h0Z"></path><path class="cls-2" d="M139,36.5c.6-.9,1.3-1.5,2.1-1.9.9-.4,1.8-.6,2.8-.4.1,0,.3.2.3.4,0,1.4,0,2.8,0,4.2,0,0,0,.1,0,0-.8,0-1.5,0-2.2,0-1.9.2-3,1.4-3,3.2,0,2.3,0,4.6,0,6.8v.7h-4.6c0-.1,0-.3,0-.4,0-4.7,0-9.4,0-14.2,0-.4.1-.6.5-.5,1.2,0,2.4,0,3.6,0,.4,0,.5.1.5.5,0,.5,0,1,0,1.6Z"></path><path class="cls-2" d="M43.4,49.5v-15.1h4.5v15.1h-4.5Z"></path><path class="cls-2" d="M144.9,34.4h4.5v15.1h-4.5v-15.1Z"></path><path class="cls-2" d="M116.8,49.6h-4.5c0-.2,0-.4,0-.5,0-4.7,0-9.4,0-14.1,0-.5.1-.6.6-.6,1.2,0,2.4,0,3.6,0,.3,0,.4,0,.4.4,0,4.8,0,9.7,0,14.5,0,0,0,.1,0,.2h0Z"></path><path class="cls-2" d="M188.5,49.8c-1.6,0-3-1.1-3.1-2.8,0-1.6,1.2-3,2.9-3.1,1.6,0,3,1.2,3.1,2.8,0,1.7-1.2,3-2.9,3.1Z"></path><path class="cls-2" d="M114.5,31.2c-1.5,0-2.7-1.3-2.7-2.7,0-1.6,1.3-2.7,2.9-2.7,1.4,0,2.6,1.3,2.6,2.7,0,1.5-1.2,2.7-2.8,2.7Z"></path><path class="cls-2" d="M147.2,25.8c1.5,0,2.7,1.2,2.7,2.7,0,1.5-1.3,2.8-2.7,2.7-1.5,0-2.8-1.3-2.8-2.7,0-1.5,1.3-2.7,2.8-2.7Z"></path></g></g><path d="M95.1,61.6l-.9.2c0-.1-.1-.2-.2-.3,0-.1-.2-.2-.3-.3-.1,0-.3-.1-.5-.1s-.5,0-.7.2c-.2.1-.3.3-.3.5s0,.3.2.4c.1.1.3.2.6.3l.8.2c.5.1.9.3,1.1.5.2.2.4.5.4.9s0,.6-.3.9c-.2.2-.4.4-.8.6-.3.1-.7.2-1.1.2s-1.1-.1-1.5-.4c-.4-.3-.6-.6-.7-1.1l1-.2c0,.3.2.5.4.6.2.1.4.2.8.2s.6,0,.8-.2c.2-.1.3-.3.3-.5s0-.3-.2-.4c-.1-.1-.3-.2-.6-.3l-.9-.2c-.5-.1-.9-.3-1.1-.5-.2-.2-.4-.6-.4-.9s0-.6.3-.8c.2-.2.4-.4.7-.6.3-.1.7-.2,1.1-.2.6,0,1,.1,1.4.4.3.2.5.6.7,1Z"></path><path d="M86.3,62.5v3.2h-1v-5.3h1v.9h0c.1-.3.3-.5.6-.7.3-.2.6-.3,1-.3s.7,0,1,.2c.3.2.5.4.6.7s.2.7.2,1.1v3.4h-1v-3.3c0-.4-.1-.7-.3-.9-.2-.2-.5-.3-.8-.3s-.5,0-.6.2c-.2.1-.3.3-.4.5-.1.2-.2.4-.2.7Z"></path><path d="M81.3,65.7c-.3,0-.6,0-.9-.2-.3-.1-.5-.3-.6-.6-.2-.2-.2-.5-.2-.9s0-.5.2-.7.3-.3.5-.5c.2-.1.4-.2.7-.3.2,0,.5-.1.7-.1.3,0,.6,0,.8,0,.2,0,.3,0,.4-.1,0,0,.1-.1.1-.3h0c0-.3,0-.6-.3-.7-.2-.2-.4-.2-.8-.2s-.6,0-.8.2c-.2.2-.3.3-.4.5l-1-.2c.1-.3.3-.6.5-.8.2-.2.5-.3.8-.4.3,0,.6-.1.9-.1s.4,0,.7,0c.2,0,.5.1.7.3.2.1.4.3.5.6.1.2.2.6.2.9v3.5h-1v-.7h0c0,.1-.2.3-.3.4-.1.1-.3.2-.5.3-.2,0-.5.1-.8.1ZM81.5,64.9c.3,0,.5,0,.7-.2.2-.1.4-.3.5-.4.1-.2.2-.4.2-.6v-.7s-.1,0-.2.1c-.1,0-.2,0-.4,0-.1,0-.3,0-.4,0-.1,0-.2,0-.3,0-.2,0-.4,0-.6.1-.2,0-.3.1-.4.3,0,.1-.1.3-.1.4s0,.5.3.6c.2.1.4.2.7.2Z"></path><path d="M74.9,62.5v3.2h-1v-5.3h1v.9h0c.1-.3.3-.5.6-.7.3-.2.6-.3,1-.3s.7,0,1,.2c.3.2.5.4.6.7.2.3.2.7.2,1.1v3.4h-1v-3.3c0-.4-.1-.7-.3-.9-.2-.2-.5-.3-.8-.3s-.5,0-.6.2c-.2.1-.3.3-.4.5-.1.2-.2.4-.2.7Z"></path><path d="M71.5,65.6v-5.3h1v5.3h-1ZM72,59.5c-.2,0-.3,0-.5-.2-.1-.1-.2-.3-.2-.4s0-.3.2-.4c.1-.1.3-.2.5-.2s.3,0,.5.2c.1.1.2.3.2.4s0,.3-.2.4c-.1.1-.3.2-.5.2Z"></path><path d="M65.8,65.6v-7.1h4.4v.9h-3.3v2.2h3v.9h-3v3.1h-1.1Z"></path><path d="M58.4,62.5v3.2h-1v-5.3h1v.9h0c.1-.3.3-.5.6-.7.3-.2.6-.3,1-.3s.7,0,1,.2c.3.2.5.4.6.7.2.3.2.7.2,1.1v3.4h-1v-3.3c0-.4-.1-.7-.3-.9-.2-.2-.5-.3-.8-.3s-.5,0-.6.2c-.2.1-.3.3-.4.5-.1.2-.2.4-.2.7Z"></path><path d="M53.9,65.7c-.5,0-1-.1-1.4-.3-.4-.2-.7-.5-.9-1-.2-.4-.3-.9-.3-1.4s.1-1,.3-1.4c.2-.4.5-.7.9-1,.4-.2.8-.4,1.3-.4s.6,0,.9.1c.3,0,.5.3.8.5.2.2.4.5.5.8.1.3.2.7.2,1.2v.4h-4.2v-.8h3.2c0-.3,0-.5-.2-.7-.1-.2-.3-.4-.5-.5-.2-.1-.4-.2-.7-.2s-.5,0-.8.2c-.2.1-.4.3-.5.6-.1.2-.2.5-.2.7v.6c0,.4,0,.7.2.9.1.2.3.4.5.6.2.1.5.2.8.2s.4,0,.5,0c.2,0,.3-.1.4-.3.1-.1.2-.3.3-.4l1,.2c0,.3-.2.5-.4.8-.2.2-.5.4-.8.5-.3.1-.6.2-1,.2Z"></path><path d="M45.2,65.6v-.7l3.7-5.5h-3.8v-.9h5.1v.7l-3.7,5.5h3.8v.9h-5.1Z"></path><path d="M41.8,60.3l-1.9,5.3h-1.1l-1.9-5.3h1.1l1.3,4.1h0l1.3-4.1h1.1Z"></path><path d="M33.4,65.7c-.3,0-.6,0-.9-.2-.3-.1-.5-.3-.6-.6-.2-.2-.2-.5-.2-.9s0-.5.2-.7c.1-.2.3-.3.5-.5s.4-.2.7-.3c.2,0,.5-.1.7-.1.3,0,.6,0,.8,0,.2,0,.3,0,.4-.1,0,0,.1-.1.1-.3h0c0-.3,0-.6-.3-.7-.2-.2-.4-.2-.8-.2s-.6,0-.8.2c-.2.2-.3.3-.4.5l-1-.2c.1-.3.3-.6.5-.8.2-.2.5-.3.8-.4.3,0,.6-.1.9-.1s.4,0,.7,0c.2,0,.5.1.7.3.2.1.4.3.5.6.1.2.2.6.2.9v3.5h-1v-.7h0c0,.1-.2.3-.3.4s-.3.2-.5.3-.5.1-.8.1ZM33.6,64.9c.3,0,.5,0,.7-.2.2-.1.4-.3.5-.4.1-.2.2-.4.2-.6v-.7s-.1,0-.2.1c-.1,0-.2,0-.4,0-.1,0-.3,0-.4,0-.1,0-.2,0-.3,0-.2,0-.4,0-.6.1-.2,0-.3.1-.4.3,0,.1-.1.3-.1.4s0,.5.3.6c.2.1.4.2.7.2Z"></path><path d="M27.9,58.5v7.1h-1v-7.1h1Z"></path><path d="M23.4,65.7c-.5,0-1-.1-1.4-.3-.4-.2-.7-.5-.9-1-.2-.4-.3-.9-.3-1.4s.1-1,.3-1.4c.2-.4.5-.7.9-1,.4-.2.8-.4,1.3-.4s.6,0,.9.1c.3,0,.5.3.8.5.2.2.4.5.5.8.1.3.2.7.2,1.2v.4h-4.2v-.8h3.2c0-.3,0-.5-.2-.7-.1-.2-.3-.4-.5-.5-.2-.1-.4-.2-.7-.2s-.5,0-.8.2c-.2.1-.4.3-.5.6-.1.2-.2.5-.2.7v.6c0,.4,0,.7.2.9.1.2.3.4.5.6.2.1.5.2.8.2s.4,0,.5,0c.2,0,.3-.1.4-.3.1-.1.2-.3.3-.4l1,.2c0,.3-.2.5-.4.8-.2.2-.5.4-.8.5-.3.1-.6.2-1,.2Z"></path><path d="M17,65.7c-.4,0-.8-.1-1.2-.3-.3-.2-.6-.5-.8-.9-.2-.4-.3-.9-.3-1.5s0-1.1.3-1.5c.2-.4.5-.7.8-.9.3-.2.7-.3,1.1-.3s.6,0,.8.2c.2.1.4.2.5.4.1.1.2.3.3.4h0v-2.6h1v7.1h-1v-.8h0c0,.1-.2.2-.3.4-.1.1-.3.3-.5.4-.2.1-.5.2-.8.2ZM17.2,64.8c.3,0,.6,0,.8-.2.2-.2.4-.4.5-.7.1-.3.2-.6.2-1s0-.7-.2-1c-.1-.3-.3-.5-.5-.6-.2-.2-.5-.2-.8-.2s-.6,0-.8.2c-.2.2-.4.4-.5.7-.1.3-.2.6-.2.9s0,.7.2,1c.1.3.3.5.5.7.2.2.5.2.8.2Z"></path><path d="M7.6,62.5v3.2h-1v-5.3h1v.9h0c.1-.3.3-.5.6-.7.3-.2.6-.3,1-.3s.7,0,1,.2c.3.2.5.4.6.7.2.3.2.7.2,1.1v3.4h-1v-3.3c0-.4-.1-.7-.3-.9-.2-.2-.5-.3-.8-.3s-.5,0-.6.2c-.2.1-.3.3-.4.5-.1.2-.2.4-.2.7Z"></path><path d="M.8,65.6v-7.1h4.5v.9H1.9v2.2h3.1v.9H1.9v2.2h3.4v.9H.8Z"></path></g></g></svg>